<svg width="245" height="241" viewBox="0 0 245 241" fill="none" xmlns="http://www.w3.org/2000/svg">
<g filter="url(#filter0_d_61_93)">
<path d="M125.053 152.936C126.483 147.601 131.966 144.435 137.301 145.865L203.95 163.723C209.284 165.153 212.45 170.636 211.021 175.971L198.08 224.267C196.65 229.602 191.167 232.767 185.832 231.338L119.184 213.48C113.849 212.05 110.683 206.567 112.113 201.232L125.053 152.936Z" fill="url(#paint0_linear_61_93)"/>
<path d="M208.867 145.371C214.202 146.8 217.368 152.283 215.938 157.618L198.08 224.267C196.65 229.602 191.167 232.767 185.832 231.338L137.536 218.397C132.202 216.968 129.036 211.484 130.465 206.15L148.324 139.501C149.753 134.166 155.236 131 160.571 132.43L208.867 145.371Z" fill="url(#paint1_linear_61_93)"/>
<path d="M91.9903 114.054C97.325 115.483 100.491 120.966 99.0614 126.301L81.2029 192.95C79.7735 198.285 74.2901 201.45 68.9554 200.021L20.6591 187.08C15.3245 185.651 12.1587 180.167 13.5881 174.833L31.4466 108.184C32.876 102.849 38.3594 99.6832 43.694 101.113L91.9903 114.054Z" fill="url(#paint2_linear_61_93)"/>
<path d="M99.5555 197.867C98.1261 203.202 92.6427 206.368 87.308 204.939L20.6591 187.08C15.3245 185.651 12.1587 180.167 13.5881 174.833L26.529 126.536C27.9585 121.202 33.4418 118.036 38.7765 119.465L105.425 137.324C110.76 138.753 113.926 144.237 112.496 149.571L99.5555 197.867Z" fill="url(#paint3_linear_61_93)"/>
<path d="M130.873 80.9905C129.443 86.3251 123.96 89.4909 118.625 88.0615L51.9762 70.203C46.6416 68.7736 43.4758 63.2902 44.9052 57.9555L57.8461 9.65926C59.2756 4.3246 64.7589 1.15877 70.0936 2.58819L136.742 20.4467C142.077 21.8761 145.243 27.3595 143.814 32.6942L130.873 80.9905Z" fill="url(#paint4_linear_61_93)"/>
<path d="M47.0587 88.5556C41.724 87.1262 38.5582 81.6428 39.9876 76.3081L57.8461 9.65926C59.2756 4.3246 64.7589 1.15877 70.0936 2.58819L118.39 15.5292C123.725 16.9586 126.89 22.4419 125.461 27.7766L107.602 94.4255C106.173 99.7601 100.69 102.926 95.355 101.497L47.0587 88.5556Z" fill="url(#paint5_linear_61_93)"/>
<path d="M163.936 119.873C158.601 118.443 155.435 112.96 156.865 107.625L174.723 40.9764C176.153 35.6417 181.636 32.4759 186.971 33.9053L235.267 46.8463C240.602 48.2757 243.767 53.7591 242.338 59.0937L224.479 125.743C223.05 131.077 217.567 134.243 212.232 132.814L163.936 119.873Z" fill="url(#paint6_linear_61_93)"/>
<path d="M156.371 36.0588C157.8 30.7242 163.283 27.5583 168.618 28.9877L235.267 46.8463C240.602 48.2757 243.767 53.7591 242.338 59.0937L229.397 107.39C227.968 112.725 222.484 115.89 217.15 114.461L150.501 96.6026C145.166 95.1731 142 89.6898 143.43 84.3551L156.371 36.0588Z" fill="url(#paint7_linear_61_93)"/>
<path d="M99.3202 125.335C97.8908 130.67 101.057 136.153 106.391 137.583L96.732 134.994L99.3202 125.335Z" fill="url(#paint8_linear_61_93)"/>
<path d="M145.994 148.194L136.335 145.606C141.67 147.035 147.153 143.87 148.582 138.535L145.994 148.194Z" fill="url(#paint9_linear_61_93)"/>
<path d="M119.591 88.3203C114.256 86.8909 108.773 90.0567 107.344 95.3914L109.932 85.7321L119.591 88.3203Z" fill="url(#paint10_linear_61_93)"/>
<path d="M156.606 108.591C158.035 103.257 154.869 97.7731 149.535 96.3437L159.194 98.9319L156.606 108.591Z" fill="url(#paint11_linear_61_93)"/>
</g>
<g filter="url(#filter1_d_61_93)">
<path d="M112.991 112.951C113.492 111.084 115.411 109.976 117.278 110.477L141.426 116.947C143.293 117.447 144.401 119.367 143.901 121.234V121.234C143.401 123.101 141.481 124.209 139.614 123.709L115.466 117.238C113.599 116.738 112.491 114.819 112.991 112.951V112.951Z" fill="url(#paint12_linear_61_93)"/>
<path d="M132.587 101.638C134.454 102.138 135.562 104.057 135.062 105.924L128.592 130.072C128.091 131.94 126.172 133.048 124.305 132.547V132.547C122.438 132.047 121.33 130.128 121.83 128.261L128.301 104.113C128.801 102.245 130.72 101.137 132.587 101.638V101.638Z" fill="url(#paint13_linear_61_93)"/>
</g>
<defs>
<filter id="filter0_d_61_93" x="0.244873" y="2.24496" width="242.436" height="238.436" filterUnits="userSpaceOnUse" color-interpolation-filters="sRGB">
<feFlood flood-opacity="0" result="BackgroundImageFix"/>
<feColorMatrix in="SourceAlpha" type="matrix" values="0 0 0 0 0 0 0 0 0 0 0 0 0 0 0 0 0 0 127 0" result="hardAlpha"/>
<feOffset dx="-9" dy="5"/>
<feGaussianBlur stdDeviation="2"/>
<feComposite in2="hardAlpha" operator="out"/>
<feColorMatrix type="matrix" values="0 0 0 0 0 0 0 0 0 0 0 0 0 0 0 0 0 0 0.25 0"/>
<feBlend mode="normal" in2="BackgroundImageFix" result="effect1_dropShadow_61_93"/>
<feBlend mode="normal" in="SourceGraphic" in2="effect1_dropShadow_61_93" result="shape"/>
</filter>
<filter id="filter1_d_61_93" x="108.871" y="101.518" width="39.1499" height="39.1499" filterUnits="userSpaceOnUse" color-interpolation-filters="sRGB">
<feFlood flood-opacity="0" result="BackgroundImageFix"/>
<feColorMatrix in="SourceAlpha" type="matrix" values="0 0 0 0 0 0 0 0 0 0 0 0 0 0 0 0 0 0 127 0" result="hardAlpha"/>
<feOffset dy="4"/>
<feGaussianBlur stdDeviation="2"/>
<feComposite in2="hardAlpha" operator="out"/>
<feColorMatrix type="matrix" values="0 0 0 0 0 0 0 0 0 0 0 0 0 0 0 0 0 0 0.25 0"/>
<feBlend mode="normal" in2="BackgroundImageFix" result="effect1_dropShadow_61_93"/>
<feBlend mode="normal" in="SourceGraphic" in2="effect1_dropShadow_61_93" result="shape"/>
</filter>
<linearGradient id="paint0_linear_61_93" x1="43.963" y1="96.9631" x2="210.963" y2="142.463" gradientUnits="userSpaceOnUse">
<stop stop-color="#AA0080"/>
<stop offset="1" stop-color="#2C004E"/>
</linearGradient>
<linearGradient id="paint1_linear_61_93" x1="43.963" y1="96.9631" x2="210.963" y2="142.463" gradientUnits="userSpaceOnUse">
<stop stop-color="#AA0080"/>
<stop offset="1" stop-color="#2C004E"/>
</linearGradient>
<linearGradient id="paint2_linear_61_93" x1="43.963" y1="96.9631" x2="210.963" y2="142.463" gradientUnits="userSpaceOnUse">
<stop stop-color="#AA0080"/>
<stop offset="1" stop-color="#2C004E"/>
</linearGradient>
<linearGradient id="paint3_linear_61_93" x1="43.963" y1="96.9631" x2="210.963" y2="142.463" gradientUnits="userSpaceOnUse">
<stop stop-color="#AA0080"/>
<stop offset="1" stop-color="#2C004E"/>
</linearGradient>
<linearGradient id="paint4_linear_61_93" x1="43.963" y1="96.9631" x2="210.963" y2="142.463" gradientUnits="userSpaceOnUse">
<stop stop-color="#AA0080"/>
<stop offset="1" stop-color="#2C004E"/>
</linearGradient>
<linearGradient id="paint5_linear_61_93" x1="43.963" y1="96.9631" x2="210.963" y2="142.463" gradientUnits="userSpaceOnUse">
<stop stop-color="#AA0080"/>
<stop offset="1" stop-color="#2C004E"/>
</linearGradient>
<linearGradient id="paint6_linear_61_93" x1="43.963" y1="96.9631" x2="210.963" y2="142.463" gradientUnits="userSpaceOnUse">
<stop stop-color="#AA0080"/>
<stop offset="1" stop-color="#2C004E"/>
</linearGradient>
<linearGradient id="paint7_linear_61_93" x1="43.963" y1="96.9631" x2="210.963" y2="142.463" gradientUnits="userSpaceOnUse">
<stop stop-color="#AA0080"/>
<stop offset="1" stop-color="#2C004E"/>
</linearGradient>
<linearGradient id="paint8_linear_61_93" x1="43.963" y1="96.9631" x2="210.963" y2="142.463" gradientUnits="userSpaceOnUse">
<stop stop-color="#AA0080"/>
<stop offset="1" stop-color="#2C004E"/>
</linearGradient>
<linearGradient id="paint9_linear_61_93" x1="43.963" y1="96.9631" x2="210.963" y2="142.463" gradientUnits="userSpaceOnUse">
<stop stop-color="#AA0080"/>
<stop offset="1" stop-color="#2C004E"/>
</linearGradient>
<linearGradient id="paint10_linear_61_93" x1="43.963" y1="96.9631" x2="210.963" y2="142.463" gradientUnits="userSpaceOnUse">
<stop stop-color="#AA0080"/>
<stop offset="1" stop-color="#2C004E"/>
</linearGradient>
<linearGradient id="paint11_linear_61_93" x1="43.963" y1="96.9631" x2="210.963" y2="142.463" gradientUnits="userSpaceOnUse">
<stop stop-color="#AA0080"/>
<stop offset="1" stop-color="#2C004E"/>
</linearGradient>
<linearGradient id="paint12_linear_61_93" x1="132.587" y1="101.638" x2="124.305" y2="132.547" gradientUnits="userSpaceOnUse">
<stop stop-color="#B3B3B3"/>
<stop offset="1" stop-color="#656565"/>
</linearGradient>
<linearGradient id="paint13_linear_61_93" x1="132.587" y1="101.638" x2="124.305" y2="132.547" gradientUnits="userSpaceOnUse">
<stop stop-color="#B3B3B3"/>
<stop offset="1" stop-color="#656565"/>
</linearGradient>
</defs>
</svg>
